<?xml version="1.0" standalone="no"?>
<!DOCTYPE svg PUBLIC "-//W3C//DTD SVG 20010904//EN"
 "http://www.w3.org/TR/2001/REC-SVG-20010904/DTD/svg10.dtd">
<svg version="1.0" xmlns="http://www.w3.org/2000/svg"
 width="700.000000pt" height="700.000000pt" viewBox="0 0 700.000000 700.000000"
 preserveAspectRatio="xMidYMid meet">
<metadata>
Created by potrace 1.14, written by Peter Selinger 2001-2017
</metadata>
<g transform="translate(0.000000,700.000000) scale(0.100000,-0.100000)"
fill="#000000" stroke="none">
<path d="M3023 6830 c-208 -21 -407 -103 -575 -239 -40 -32 -334 -321 -654
-642 -426 -429 -593 -603 -628 -656 -66 -101 -123 -228 -153 -341 -24 -87 -27
-115 -27 -272 0 -157 3 -185 27 -272 31 -118 88 -242 158 -345 40 -60 283
-309 1043 -1069 948 -949 994 -993 1049 -1013 117 -43 220 -20 307 67 85 86
108 177 74 293 -15 53 -42 81 -1003 1044 -937 939 -990 994 -1024 1062 -46 93
-61 168 -54 268 6 94 33 171 87 252 22 34 280 298 607 624 421 419 582 574
623 597 90 50 158 65 274 60 113 -5 183 -27 263 -82 27 -18 390 -400 813 -856
855 -921 805 -874 940 -874 219 1 360 237 253 424 -26 46 -1431 1569 -1559
1691 -215 203 -535 309 -841 279z"/>
<path d="M2967 4966 c-65 -24 -120 -74 -155 -141 -37 -69 -38 -188 -3 -255 16
-31 321 -344 1001 -1025 948 -950 979 -982 1014 -1055 70 -146 72 -293 6 -441
-33 -72 -50 -91 -584 -628 -346 -348 -573 -568 -610 -592 -162 -107 -389 -107
-548 -2 -33 22 -388 368 -861 839 -530 529 -819 810 -848 825 -62 33 -204 34
-264 2 -154 -83 -204 -279 -109 -423 13 -19 395 -403 848 -852 696 -690 838
-826 912 -874 204 -134 444 -194 690 -173 206 17 389 87 554 209 97 72 1208
1191 1260 1269 214 320 248 731 90 1069 -84 178 -75 169 -1119 1215 -557 559
-1005 1000 -1030 1015 -36 21 -59 26 -125 29 -52 2 -94 -2 -119 -11z"/>
<path d="M5675 4416 c-89 -28 -144 -74 -186 -156 -18 -35 -23 -62 -23 -121 -1
-65 3 -84 29 -134 90 -175 326 -212 463 -72 57 59 83 122 83 204 0 193 -187
336 -366 279z"/>
</g>
</svg>
