<?xml version="1.0" encoding="UTF-8" standalone="no"?>
<svg
   id="Layer_1"
   data-name="Layer 1"
   viewBox="0 0 363.76985 121.005"
   version="1.1"
   width="363.76984"
   height="121.005"
   xmlns:xlink="http://www.w3.org/1999/xlink"
   xmlns="http://www.w3.org/2000/svg"
   xmlns:svg="http://www.w3.org/2000/svg">
  <defs
     id="defs14">
    <style
       id="style2">
      .cls-1 {
        fill: url(#linear-gradient);
      }

      .cls-1, .cls-2, .cls-3, .cls-4 {
        stroke-width: 0px;
      }

      .cls-2 {
        fill: url(#linear-gradient-2);
      }

      .cls-3 {
        fill: #ac1be0;
      }

      .cls-4 {
        fill: #333132;
      }
    </style>
    <linearGradient
       id="linear-gradient"
       x1="93.779999"
       y1="72.989998"
       x2="175.09"
       y2="72.989998"
       gradientUnits="userSpaceOnUse">
      <stop
         offset="0"
         stop-color="#1b4ade"
         id="stop4" />
      <stop
         offset=".28"
         stop-color="#5039de"
         id="stop6" />
      <stop
         offset=".72"
         stop-color="#8826de"
         id="stop8" />
      <stop
         offset="1"
         stop-color="#aa1bde"
         id="stop10" />
    </linearGradient>
    <linearGradient
       id="linear-gradient-2"
       x1="93.349998"
       y1="106.07"
       x2="175.09"
       y2="106.07"
       xlink:href="#linear-gradient" />
    <linearGradient
       xlink:href="#linear-gradient"
       id="linearGradient149"
       gradientUnits="userSpaceOnUse"
       x1="93.779999"
       y1="72.989998"
       x2="175.09"
       y2="72.989998" />
  </defs>
  <g
     id="g30"
     transform="translate(91.67985,-143.8575)">
    <path
       class="cls-4"
       d="m 28.08,231.36 c -3.14,0 -6.14,-0.49 -9,-1.48 -2.86,-0.99 -5.36,-2.41 -7.5,-4.27 -2.14,-1.86 -3.68,-4.07 -4.61,-6.63 l 10.34,-3.83 c 0.32,0.91 0.98,1.75 2,2.54 1.01,0.79 2.28,1.42 3.79,1.92 1.51,0.5 3.18,0.74 4.99,0.74 1.81,0 3.36,-0.26 4.89,-0.78 1.53,-0.52 2.77,-1.24 3.71,-2.18 0.94,-0.93 1.42,-2.02 1.42,-3.27 0,-1.25 -0.49,-2.29 -1.48,-3.11 -0.98,-0.82 -2.25,-1.48 -3.79,-1.98 -1.54,-0.49 -3.13,-0.87 -4.75,-1.14 -4.02,-0.59 -7.62,-1.54 -10.8,-2.85 -3.18,-1.31 -5.69,-3.14 -7.53,-5.47 -1.84,-2.33 -2.75,-5.29 -2.75,-8.88 0,-3.59 0.98,-6.48 2.93,-9.06 1.96,-2.58 4.54,-4.59 7.75,-6.03 3.21,-1.44 6.67,-2.16 10.4,-2.16 3.09,0 6.07,0.49 8.94,1.48 2.87,0.99 5.38,2.41 7.52,4.27 2.14,1.86 3.68,4.1 4.61,6.71 l -10.34,3.75 c -0.32,-0.9 -0.99,-1.74 -2,-2.51 -1.01,-0.77 -2.28,-1.4 -3.79,-1.88 -1.52,-0.48 -3.17,-0.72 -4.95,-0.72 -1.7,-0.03 -3.32,0.23 -4.85,0.76 -1.53,0.53 -2.78,1.26 -3.75,2.2 -0.97,0.93 -1.46,2 -1.46,3.19 0,1.57 0.46,2.76 1.38,3.55 0.92,0.8 2.14,1.37 3.65,1.72 1.52,0.34 3.19,0.65 5.03,0.92 3.78,0.56 7.27,1.55 10.46,2.97 3.19,1.42 5.76,3.31 7.69,5.67 1.93,2.36 2.89,5.22 2.89,8.6 0,3.38 -0.97,6.48 -2.91,9.06 -1.94,2.58 -4.51,4.59 -7.7,6.03 -3.19,1.44 -6.67,2.16 -10.42,2.16 z"
       id="path16" />
    <path
       class="cls-4"
       d="M 55.27,215.71 V 190.4 h 11.02 v 22.28 c 0,1.41 0.34,2.68 1.02,3.81 0.68,1.13 1.59,2.03 2.73,2.7 1.14,0.67 2.4,1 3.75,1 1.35,0 2.65,-0.33 3.79,-1 1.14,-0.67 2.05,-1.56 2.72,-2.7 0.67,-1.13 1,-2.4 1,-3.81 V 190.4 h 11.02 l 0.04,39.92 H 81.34 l -0.04,-3.03 c -1.33,1.28 -2.9,2.28 -4.69,2.99 -1.8,0.72 -3.69,1.08 -5.69,1.08 -2.87,0 -5.5,-0.71 -7.86,-2.12 -2.37,-1.41 -4.26,-3.29 -5.67,-5.65 -1.41,-2.36 -2.12,-4.98 -2.12,-7.88 z"
       id="path18" />
    <path
       class="cls-4"
       d="m 100.38,230.32 -0.04,-39.92 h 11.02 l 0.04,2.95 c 1.33,-1.28 2.9,-2.28 4.69,-2.99 1.8,-0.72 3.69,-1.08 5.69,-1.08 1.46,0 2.93,0.21 4.39,0.64 l -4.35,11.14 c -0.96,-0.4 -1.93,-0.6 -2.91,-0.6 -1.38,0 -2.65,0.33 -3.79,1 -1.14,0.67 -2.05,1.56 -2.72,2.69 -0.67,1.13 -1,2.4 -1,3.81 v 22.36 z"
       id="path20" />
    <path
       class="cls-4"
       d="M 142.9,250.28 H 131.88 V 190.4 h 11.02 v 4.31 c 1.28,-1.57 2.79,-2.85 4.55,-3.85 1.76,-1 3.81,-1.5 6.15,-1.5 2.9,0 5.62,0.55 8.16,1.64 2.54,1.09 4.77,2.6 6.69,4.53 1.92,1.93 3.42,4.16 4.51,6.69 1.09,2.53 1.64,5.24 1.64,8.14 0,2.9 -0.55,5.63 -1.64,8.18 -1.09,2.55 -2.59,4.8 -4.51,6.73 -1.92,1.93 -4.15,3.44 -6.69,4.53 -2.54,1.09 -5.26,1.64 -8.16,1.64 -2.34,0 -4.39,-0.51 -6.15,-1.52 -1.76,-1.01 -3.27,-2.29 -4.55,-3.83 z m 10.54,-50.34 c -1.81,0 -3.44,0.47 -4.89,1.42 -1.45,0.94 -2.6,2.2 -3.43,3.77 -0.84,1.57 -1.26,3.31 -1.26,5.23 0,1.92 0.42,3.67 1.26,5.25 0.84,1.58 1.98,2.84 3.43,3.77 1.45,0.93 3.08,1.4 4.89,1.4 1.81,0 3.47,-0.46 4.97,-1.4 1.5,-0.93 2.7,-2.18 3.59,-3.75 0.89,-1.57 1.34,-3.33 1.34,-5.27 0,-1.94 -0.44,-3.63 -1.32,-5.21 -0.88,-1.58 -2.07,-2.85 -3.57,-3.79 -1.5,-0.94 -3.17,-1.42 -5.01,-1.42 z"
       id="path22" />
    <path
       class="cls-4"
       d="m 179.99,230.32 v -59.88 h 11.02 v 59.88 z"
       id="path24" />
    <path
       class="cls-4"
       d="M 198.99,215.71 V 190.4 h 11.02 v 22.28 c 0,1.41 0.34,2.68 1.02,3.81 0.68,1.13 1.59,2.03 2.73,2.7 1.14,0.67 2.4,1 3.75,1 1.35,0 2.65,-0.33 3.79,-1 1.14,-0.67 2.05,-1.56 2.72,-2.7 0.67,-1.13 1,-2.4 1,-3.81 V 190.4 h 11.02 l 0.04,39.92 h -11.02 l -0.04,-3.03 c -1.33,1.28 -2.9,2.28 -4.69,2.99 -1.8,0.72 -3.69,1.08 -5.69,1.08 -2.87,0 -5.5,-0.71 -7.86,-2.12 -2.37,-1.41 -4.26,-3.29 -5.67,-5.65 -1.41,-2.36 -2.12,-4.98 -2.12,-7.88 z"
       id="path26" />
    <path
       class="cls-4"
       d="m 255.68,231.04 c -2.05,-0.16 -4.02,-0.59 -5.91,-1.3 -1.89,-0.71 -3.57,-1.66 -5.05,-2.87 -1.48,-1.21 -2.63,-2.67 -3.45,-4.37 l 9.26,-3.99 c 0.29,0.43 0.73,0.89 1.32,1.38 0.59,0.49 1.3,0.92 2.14,1.3 0.84,0.38 1.82,0.56 2.93,0.56 0.82,0 1.62,-0.1 2.4,-0.3 0.77,-0.2 1.4,-0.53 1.88,-1 0.48,-0.47 0.72,-1.08 0.72,-1.86 0,-0.85 -0.31,-1.5 -0.92,-1.96 -0.61,-0.45 -1.35,-0.79 -2.22,-1.02 -0.87,-0.23 -1.7,-0.42 -2.5,-0.58 -2.45,-0.43 -4.76,-1.19 -6.93,-2.3 -2.17,-1.1 -3.93,-2.54 -5.29,-4.29 -1.36,-1.76 -2.04,-3.86 -2.04,-6.31 0,-2.69 0.7,-5.01 2.12,-6.97 1.41,-1.96 3.25,-3.47 5.51,-4.53 2.26,-1.06 4.71,-1.6 7.35,-1.6 3.11,0 6,0.65 8.66,1.96 2.66,1.3 4.8,3.14 6.43,5.51 l -8.7,5.15 c -0.35,-0.5 -0.79,-0.99 -1.34,-1.46 -0.55,-0.47 -1.17,-0.86 -1.88,-1.2 -0.71,-0.33 -1.46,-0.52 -2.26,-0.58 -1.04,-0.08 -1.98,-0.02 -2.83,0.18 -0.85,0.2 -1.52,0.57 -2.02,1.1 -0.49,0.53 -0.74,1.25 -0.74,2.16 0,0.91 0.39,1.52 1.16,1.94 0.77,0.41 1.66,0.72 2.67,0.92 1.01,0.2 1.9,0.43 2.67,0.7 2.32,0.74 4.49,1.7 6.53,2.85 2.04,1.16 3.68,2.57 4.93,4.25 1.25,1.68 1.84,3.65 1.76,5.91 0,2.64 -0.79,4.94 -2.36,6.93 -1.57,1.98 -3.6,3.49 -6.09,4.51 -2.49,1.02 -5.13,1.42 -7.92,1.18 z"
       id="path28" />
  </g>
  <g
     id="g40"
     transform="translate(-93.355,-28.7725)">
    <g
       id="g36">
      <path
         class="cls-1"
         d="m 137.14,117.22 c -1.35,0 -2.7,-0.51 -3.73,-1.54 L 99.54,81.81 c -7.69,-7.69 -7.69,-20.21 0,-27.9 l 19.37,-19.37 c 7.69,-7.69 20.21,-7.69 27.9,0 l 26.73,28.82 c 2.06,2.06 2.06,5.4 0,7.46 -2.06,2.06 -5.4,2.06 -7.46,0 L 139.35,42 c -1.73,-1.73 -4.04,-2.69 -6.49,-2.69 -2.45,0 -4.76,0.96 -6.49,2.69 L 107,61.37 c -1.73,1.73 -2.69,4.04 -2.69,6.49 0,2.45 0.96,4.76 2.69,6.49 l 33.87,33.87 c 2.06,2.06 2.06,5.4 0,7.46 -1.03,1.03 -2.38,1.54 -3.73,1.54 z"
         id="path32"
         style="fill:url(#linearGradient149)" />
      <circle
         class="cls-3"
         cx="180.39"
         cy="77.739998"
         r="5.3000002"
         id="circle34" />
    </g>
    <path
       class="cls-2"
       d="m 131.72,62.34 c 1.35,0 2.7,0.51 3.73,1.54 l 33.87,33.87 c 7.69,7.69 7.69,20.21 0,27.9 l -18.36,18.36 c -7.69,7.69 -20.21,7.69 -27.9,0 L 94.9,115.98 c -2.06,-2.06 -2.06,-5.4 0,-7.46 2.06,-2.06 5.4,-2.06 7.46,0 l 28.16,28.03 c 1.73,1.73 4.04,2.69 6.49,2.69 2.45,0 4.76,-0.96 6.49,-2.69 l 18.36,-18.36 c 1.73,-1.73 2.69,-4.04 2.69,-6.49 0,-2.45 -0.96,-4.76 -2.69,-6.49 L 127.99,71.34 c -2.06,-2.06 -2.06,-5.4 0,-7.46 1.03,-1.03 2.38,-1.54 3.73,-1.54 z"
       id="path38"
       style="fill:url(#linear-gradient-2)" />
  </g>
</svg>
