<?xml version="1.0" encoding="UTF-8"?>
<svg id="Layer_1" data-name="Layer 1" xmlns="http://www.w3.org/2000/svg" xmlns:xlink="http://www.w3.org/1999/xlink" viewBox="0 0 279.05 279.05">
  <defs>
    <style>
      .cls-1 {
        fill: url(#linear-gradient);
      }

      .cls-1, .cls-2, .cls-3 {
        stroke-width: 0px;
      }

      .cls-2 {
        fill: url(#linear-gradient-2);
      }

      .cls-3 {
        fill: #ac1be0;
      }
    </style>
    <linearGradient id="linear-gradient" x1="38.98" y1="103.73" x2="217.69" y2="103.73" gradientUnits="userSpaceOnUse">
      <stop offset="0" stop-color="#1b4ade"/>
      <stop offset=".28" stop-color="#5039de"/>
      <stop offset=".72" stop-color="#8826de"/>
      <stop offset="1" stop-color="#aa1bde"/>
    </linearGradient>
    <linearGradient id="linear-gradient-2" x1="38.05" y1="176.42" x2="217.69" y2="176.42" xlink:href="#linear-gradient"/>
  </defs>
  <g>
    <path class="cls-1" d="m134.29,200.93c-2.97,0-5.93-1.13-8.19-3.39L51.66,123.1c-16.9-16.9-16.9-44.41,0-61.31l42.57-42.57c16.9-16.9,44.41-16.9,61.31,0l58.75,63.33c4.53,4.52,4.53,11.86,0,16.39-4.52,4.52-11.86,4.52-16.39,0l-58.75-63.33c-3.81-3.81-8.88-5.91-14.27-5.91s-10.46,2.1-14.27,5.91l-42.57,42.57c-3.81,3.81-5.91,8.88-5.91,14.27s2.1,10.46,5.91,14.27l74.43,74.43c4.53,4.52,4.53,11.86,0,16.39-2.26,2.26-5.23,3.39-8.19,3.39Z"/>
    <circle class="cls-3" cx="229.34" cy="114.16" r="11.65"/>
  </g>
  <path class="cls-2" d="m122.38,80.33c2.97,0,5.93,1.13,8.19,3.39l74.43,74.43c16.9,16.9,16.9,44.41,0,61.31l-40.36,40.36c-16.9,16.9-44.41,16.9-61.31,0l-61.89-61.6c-4.53-4.52-4.53-11.86,0-16.39,4.52-4.52,11.86-4.52,16.39,0l61.89,61.6c3.81,3.81,8.88,5.91,14.27,5.91s10.46-2.1,14.27-5.91l40.36-40.36c3.81-3.81,5.91-8.88,5.91-14.27s-2.1-10.46-5.91-14.27l-74.43-74.43c-4.53-4.52-4.53-11.86,0-16.39,2.26-2.26,5.23-3.39,8.19-3.39Z"/>
</svg>