<?xml version="1.0" encoding="UTF-8"?>
<svg id="Layer_1" data-name="Layer 1" xmlns="http://www.w3.org/2000/svg" xmlns:xlink="http://www.w3.org/1999/xlink" viewBox="0 0 279.05 279.05">
  <defs>
    <style>
      .cls-1 {
        fill: url(#linear-gradient);
      }

      .cls-1, .cls-2, .cls-3, .cls-4 {
        stroke-width: 0px;
      }

      .cls-2 {
        fill: url(#linear-gradient-2);
      }

      .cls-3 {
        fill: #ac1be0;
      }

      .cls-4 {
        fill: #333132;
      }
    </style>
    <linearGradient id="linear-gradient" x1="93.78" y1="72.99" x2="175.09" y2="72.99" gradientUnits="userSpaceOnUse">
      <stop offset="0" stop-color="#1b4ade"/>
      <stop offset=".28" stop-color="#5039de"/>
      <stop offset=".72" stop-color="#8826de"/>
      <stop offset="1" stop-color="#aa1bde"/>
    </linearGradient>
    <linearGradient id="linear-gradient-2" x1="93.35" y1="106.07" x2="175.09" y2="106.07" xlink:href="#linear-gradient"/>
  </defs>
  <g>
    <path class="cls-4" d="m28.08,231.36c-3.14,0-6.14-.49-9-1.48-2.86-.99-5.36-2.41-7.5-4.27-2.14-1.86-3.68-4.07-4.61-6.63l10.34-3.83c.32.91.98,1.75,2,2.54,1.01.79,2.28,1.42,3.79,1.92s3.18.74,4.99.74,3.36-.26,4.89-.78c1.53-.52,2.77-1.24,3.71-2.18.94-.93,1.42-2.02,1.42-3.27s-.49-2.29-1.48-3.11c-.98-.82-2.25-1.48-3.79-1.98-1.54-.49-3.13-.87-4.75-1.14-4.02-.59-7.62-1.54-10.8-2.85s-5.69-3.14-7.53-5.47c-1.84-2.33-2.75-5.29-2.75-8.88s.98-6.48,2.93-9.06c1.96-2.58,4.54-4.59,7.75-6.03,3.21-1.44,6.67-2.16,10.4-2.16,3.09,0,6.07.49,8.94,1.48,2.87.99,5.38,2.41,7.52,4.27,2.14,1.86,3.68,4.1,4.61,6.71l-10.34,3.75c-.32-.9-.99-1.74-2-2.51-1.01-.77-2.28-1.4-3.79-1.88-1.52-.48-3.17-.72-4.95-.72-1.7-.03-3.32.23-4.85.76-1.53.53-2.78,1.26-3.75,2.2-.97.93-1.46,2-1.46,3.19,0,1.57.46,2.76,1.38,3.55.92.8,2.14,1.37,3.65,1.72,1.52.34,3.19.65,5.03.92,3.78.56,7.27,1.55,10.46,2.97,3.19,1.42,5.76,3.31,7.69,5.67,1.93,2.36,2.89,5.22,2.89,8.6s-.97,6.48-2.91,9.06c-1.94,2.58-4.51,4.59-7.7,6.03-3.19,1.44-6.67,2.16-10.42,2.16Z"/>
    <path class="cls-4" d="m55.27,215.71v-25.31h11.02v22.28c0,1.41.34,2.68,1.02,3.81.68,1.13,1.59,2.03,2.73,2.7,1.14.67,2.4,1,3.75,1s2.65-.33,3.79-1c1.14-.67,2.05-1.56,2.72-2.7.67-1.13,1-2.4,1-3.81v-22.28h11.02l.04,39.92h-11.02l-.04-3.03c-1.33,1.28-2.9,2.28-4.69,2.99-1.8.72-3.69,1.08-5.69,1.08-2.87,0-5.5-.71-7.86-2.12-2.37-1.41-4.26-3.29-5.67-5.65-1.41-2.36-2.12-4.98-2.12-7.88Z"/>
    <path class="cls-4" d="m100.38,230.32l-.04-39.92h11.02l.04,2.95c1.33-1.28,2.9-2.28,4.69-2.99,1.8-.72,3.69-1.08,5.69-1.08,1.46,0,2.93.21,4.39.64l-4.35,11.14c-.96-.4-1.93-.6-2.91-.6-1.38,0-2.65.33-3.79,1-1.14.67-2.05,1.56-2.72,2.69-.67,1.13-1,2.4-1,3.81v22.36h-11.02Z"/>
    <path class="cls-4" d="m142.9,250.28h-11.02v-59.88h11.02v4.31c1.28-1.57,2.79-2.85,4.55-3.85s3.81-1.5,6.15-1.5c2.9,0,5.62.55,8.16,1.64,2.54,1.09,4.77,2.6,6.69,4.53,1.92,1.93,3.42,4.16,4.51,6.69s1.64,5.24,1.64,8.14-.55,5.63-1.64,8.18c-1.09,2.55-2.59,4.8-4.51,6.73-1.92,1.93-4.15,3.44-6.69,4.53-2.54,1.09-5.26,1.64-8.16,1.64-2.34,0-4.39-.51-6.15-1.52-1.76-1.01-3.27-2.29-4.55-3.83v24.19Zm10.54-50.34c-1.81,0-3.44.47-4.89,1.42-1.45.94-2.6,2.2-3.43,3.77-.84,1.57-1.26,3.31-1.26,5.23s.42,3.67,1.26,5.25c.84,1.58,1.98,2.84,3.43,3.77,1.45.93,3.08,1.4,4.89,1.4s3.47-.46,4.97-1.4c1.5-.93,2.7-2.18,3.59-3.75.89-1.57,1.34-3.33,1.34-5.27s-.44-3.63-1.32-5.21c-.88-1.58-2.07-2.85-3.57-3.79-1.5-.94-3.17-1.42-5.01-1.42Z"/>
    <path class="cls-4" d="m179.99,230.32v-59.88h11.02v59.88h-11.02Z"/>
    <path class="cls-4" d="m198.99,215.71v-25.31h11.02v22.28c0,1.41.34,2.68,1.02,3.81.68,1.13,1.59,2.03,2.73,2.7,1.14.67,2.4,1,3.75,1s2.65-.33,3.79-1c1.14-.67,2.05-1.56,2.72-2.7.67-1.13,1-2.4,1-3.81v-22.28h11.02l.04,39.92h-11.02l-.04-3.03c-1.33,1.28-2.9,2.28-4.69,2.99-1.8.72-3.69,1.08-5.69,1.08-2.87,0-5.5-.71-7.86-2.12-2.37-1.41-4.26-3.29-5.67-5.65-1.41-2.36-2.12-4.98-2.12-7.88Z"/>
    <path class="cls-4" d="m255.68,231.04c-2.05-.16-4.02-.59-5.91-1.3-1.89-.71-3.57-1.66-5.05-2.87-1.48-1.21-2.63-2.67-3.45-4.37l9.26-3.99c.29.43.73.89,1.32,1.38.59.49,1.3.92,2.14,1.3s1.82.56,2.93.56c.82,0,1.62-.1,2.4-.3.77-.2,1.4-.53,1.88-1,.48-.47.72-1.08.72-1.86,0-.85-.31-1.5-.92-1.96-.61-.45-1.35-.79-2.22-1.02-.87-.23-1.7-.42-2.5-.58-2.45-.43-4.76-1.19-6.93-2.3-2.17-1.1-3.93-2.54-5.29-4.29-1.36-1.76-2.04-3.86-2.04-6.31,0-2.69.7-5.01,2.12-6.97,1.41-1.96,3.25-3.47,5.51-4.53,2.26-1.06,4.71-1.6,7.35-1.6,3.11,0,6,.65,8.66,1.96,2.66,1.3,4.8,3.14,6.43,5.51l-8.7,5.15c-.35-.5-.79-.99-1.34-1.46-.55-.47-1.17-.86-1.88-1.2-.71-.33-1.46-.52-2.26-.58-1.04-.08-1.98-.02-2.83.18-.85.2-1.52.57-2.02,1.1-.49.53-.74,1.25-.74,2.16s.39,1.52,1.16,1.94c.77.41,1.66.72,2.67.92,1.01.2,1.9.43,2.67.7,2.32.74,4.49,1.7,6.53,2.85,2.04,1.16,3.68,2.57,4.93,4.25,1.25,1.68,1.84,3.65,1.76,5.91,0,2.64-.79,4.94-2.36,6.93-1.57,1.98-3.6,3.49-6.09,4.51-2.49,1.02-5.13,1.42-7.92,1.18Z"/>
  </g>
  <g>
    <g>
      <path class="cls-1" d="m137.14,117.22c-1.35,0-2.7-.51-3.73-1.54l-33.87-33.87c-7.69-7.69-7.69-20.21,0-27.9l19.37-19.37c7.69-7.69,20.21-7.69,27.9,0l26.73,28.82c2.06,2.06,2.06,5.4,0,7.46-2.06,2.06-5.4,2.06-7.46,0l-26.73-28.82c-1.73-1.73-4.04-2.69-6.49-2.69s-4.76.96-6.49,2.69l-19.37,19.37c-1.73,1.73-2.69,4.04-2.69,6.49s.96,4.76,2.69,6.49l33.87,33.87c2.06,2.06,2.06,5.4,0,7.46-1.03,1.03-2.38,1.54-3.73,1.54Z"/>
      <circle class="cls-3" cx="180.39" cy="77.74" r="5.3"/>
    </g>
    <path class="cls-2" d="m131.72,62.34c1.35,0,2.7.51,3.73,1.54l33.87,33.87c7.69,7.69,7.69,20.21,0,27.9l-18.36,18.36c-7.69,7.69-20.21,7.69-27.9,0l-28.16-28.03c-2.06-2.06-2.06-5.4,0-7.46,2.06-2.06,5.4-2.06,7.46,0l28.16,28.03c1.73,1.73,4.04,2.69,6.49,2.69s4.76-.96,6.49-2.69l18.36-18.36c1.73-1.73,2.69-4.04,2.69-6.49s-.96-4.76-2.69-6.49l-33.87-33.87c-2.06-2.06-2.06-5.4,0-7.46,1.03-1.03,2.38-1.54,3.73-1.54Z"/>
  </g>
</svg>